<?xml version="1.0" encoding="utf-8"?>
<!-- Generator: Adobe Illustrator 23.0.4, SVG Export Plug-In . SVG Version: 6.00 Build 0)  -->
<svg version="1.1" id="Layer_1" xmlns="http://www.w3.org/2000/svg" xmlns:xlink="http://www.w3.org/1999/xlink" x="0px" y="0px"
	 viewBox="0 0 360 360" style="enable-background:new 0 0 360 360;" xml:space="preserve">
<style type="text/css">
	.st0{fill:#58595B;}
	.st1{fill:url(#SVGID_1_);}
	.st2{fill:url(#SVGID_2_);}
	.st3{fill:url(#SVGID_3_);}
	.st4{fill:url(#SVGID_4_);}
	.st5{fill:url(#SVGID_5_);}
	.st6{fill:url(#SVGID_6_);}
	.st7{fill:url(#SVGID_7_);}
	.st8{fill:url(#SVGID_8_);}
	.st9{fill:url(#SVGID_9_);}
	.st10{fill:url(#SVGID_10_);}
	.st11{fill:url(#SVGID_11_);}
</style>
<g>
	<path class="st0" d="M286.73,105.34c-14.92,26.73-34.84,48.44-59.75,65.16c12.46,8.53,23.77,18.36,33.93,29.51
		c10.16,11.15,18.77,23.36,25.82,36.64c7.05,13.28,12.54,27.46,16.47,42.54c3.93,15.09,5.9,30.66,5.9,46.72h-62.46
		c0-16.39-3.04-31.88-9.1-46.48c-6.07-14.59-14.35-27.45-24.84-38.61c-10.5-11.14-22.87-20.16-37.13-27.05
		c-14.26-6.89-29.43-10.82-45.49-11.8h-4.42v123.93H62.71V16.07h62.95v122.46h4.42c16.06-0.98,31.23-4.83,45.49-11.55
		c14.26-6.72,26.64-15.57,37.13-26.56c10.49-10.98,18.77-23.69,24.84-38.11c6.06-14.42,9.1-29.83,9.1-46.23h62.46
		C309.1,48.87,301.64,78.62,286.73,105.34z"/>
</g>
<linearGradient id="SVGID_1_" gradientUnits="userSpaceOnUse" x1="-441.5392" y1="170.9918" x2="368.288" y2="170.9918">
	<stop  offset="0" style="stop-color:#414042"/>
	<stop  offset="1" style="stop-color:#D7DF23"/>
</linearGradient>
<path class="st1" d="M260.76,200.29c6.24,6.85,11.89,14.11,16.96,21.76c-0.98-7.89-2.93-15.4-5.87-22.5
	c-4.42-10.65-10.41-20.08-17.95-28.28c7.54-8.19,13.53-17.62,17.95-28.28c3.02-7.26,4.98-14.96,5.94-23.07
	c-13.67,20.27-30.66,37.22-50.96,50.86C239.28,179.31,250.59,189.15,260.76,200.29z"/>
<g>
	<linearGradient id="SVGID_2_" gradientUnits="userSpaceOnUse" x1="133.3117" y1="296.4418" x2="140.5853" y2="296.4418">
		<stop  offset="0" style="stop-color:#414042"/>
		<stop  offset="1" style="stop-color:#D7DF23"/>
	</linearGradient>
	<rect x="133.31" y="266.69" class="st2" width="7.27" height="59.51"/>
	<linearGradient id="SVGID_3_" gradientUnits="userSpaceOnUse" x1="147.3353" y1="296.4418" x2="156.6089" y2="296.4418">
		<stop  offset="0" style="stop-color:#414042"/>
		<stop  offset="1" style="stop-color:#D7DF23"/>
	</linearGradient>
	<rect x="147.34" y="266.69" class="st3" width="9.27" height="59.51"/>
	<linearGradient id="SVGID_4_" gradientUnits="userSpaceOnUse" x1="165.8902" y1="296.4418" x2="176.789" y2="296.4418">
		<stop  offset="0" style="stop-color:#414042"/>
		<stop  offset="1" style="stop-color:#D7DF23"/>
	</linearGradient>
	<rect x="165.89" y="266.69" class="st4" width="10.9" height="59.51"/>
	<linearGradient id="SVGID_5_" gradientUnits="userSpaceOnUse" x1="189.4756" y1="285.0488" x2="244.7502" y2="285.0488">
		<stop  offset="0" style="stop-color:#414042"/>
		<stop  offset="1" style="stop-color:#D7DF23"/>
	</linearGradient>
	<path class="st5" d="M237.4,279.72c-5.57-13.38-13.01-25.29-22.3-35.78c-1.32,4.26-3.54,8.16-6.7,11.69
		c-5.18,5.81-11.49,9.41-18.93,10.86v59.68c11.85-0.3,22.91-2.75,33.19-7.35c8.07-3.62,15.42-8.17,22.08-13.64
		C243.26,296.41,240.81,287.92,237.4,279.72z"/>
	<linearGradient id="SVGID_6_" gradientUnits="userSpaceOnUse" x1="125.5145" y1="296.4418" x2="129.9367" y2="296.4418">
		<stop  offset="0" style="stop-color:#414042"/>
		<stop  offset="1" style="stop-color:#D7DF23"/>
	</linearGradient>
	<rect x="125.51" y="266.69" class="st6" width="4.42" height="59.51"/>
</g>
<g>
	<linearGradient id="SVGID_7_" gradientUnits="userSpaceOnUse" x1="133.3117" y1="45.9093" x2="140.5853" y2="45.9093">
		<stop  offset="0" style="stop-color:#414042"/>
		<stop  offset="1" style="stop-color:#D7DF23"/>
	</linearGradient>
	<rect x="133.31" y="16.16" class="st7" width="7.27" height="59.51"/>
	<linearGradient id="SVGID_8_" gradientUnits="userSpaceOnUse" x1="147.3353" y1="45.9093" x2="156.6089" y2="45.9093">
		<stop  offset="0" style="stop-color:#414042"/>
		<stop  offset="1" style="stop-color:#D7DF23"/>
	</linearGradient>
	<rect x="147.34" y="16.16" class="st8" width="9.27" height="59.51"/>
	<linearGradient id="SVGID_9_" gradientUnits="userSpaceOnUse" x1="165.8902" y1="45.9093" x2="176.789" y2="45.9093">
		<stop  offset="0" style="stop-color:#414042"/>
		<stop  offset="1" style="stop-color:#D7DF23"/>
	</linearGradient>
	<rect x="165.89" y="16.16" class="st9" width="10.9" height="59.51"/>
	<linearGradient id="SVGID_10_" gradientUnits="userSpaceOnUse" x1="189.4756" y1="57.3023" x2="244.7502" y2="57.3023">
		<stop  offset="0" style="stop-color:#414042"/>
		<stop  offset="1" style="stop-color:#D7DF23"/>
	</linearGradient>
	<path class="st10" d="M237.4,62.63c-5.57,13.38-13.01,25.29-22.3,35.78c-1.32-4.26-3.54-8.16-6.7-11.69
		c-5.18-5.81-11.49-9.41-18.93-10.86V16.19c11.85,0.3,22.91,2.75,33.19,7.35c8.07,3.62,15.42,8.17,22.08,13.64
		C243.26,45.95,240.81,54.43,237.4,62.63z"/>
	<linearGradient id="SVGID_11_" gradientUnits="userSpaceOnUse" x1="125.5145" y1="45.9093" x2="129.9367" y2="45.9093">
		<stop  offset="0" style="stop-color:#414042"/>
		<stop  offset="1" style="stop-color:#D7DF23"/>
	</linearGradient>
	<rect x="125.51" y="16.16" class="st11" width="4.42" height="59.51"/>
</g>
</svg>
